<svg xmlns="http://www.w3.org/2000/svg" width="147" height="110" fill="none" viewBox="0 0 147 110">
    <g fill="#59E37C" clip-path="url(#prefix__clip0)">
        <path d="M122.608 105.969c-1.191-3.259-4.241-5.9-8.183-6.65-3.942-.748-7.747.59-10.052 3.185 1.192 3.259 4.241 5.899 8.184 6.649 3.942.748 7.747-.59 10.051-3.184z"/>
        <path d="M107.839 84.27c-3.259 1.192-5.899 4.241-6.649 8.183-.749 3.943.589 7.748 3.184 10.053 3.26-1.193 5.9-4.241 6.648-8.183.75-3.943-.588-7.748-3.183-10.052zM139.411 82.934c-2.696-2.184-6.669-2.883-10.436-1.5-3.767 1.383-6.344 4.487-6.987 7.897 2.697 2.183 6.67 2.882 10.436 1.499 3.769-1.383 6.344-4.486 6.987-7.896z"/>
        <path d="M115.589 71.906c-2.183 2.697-2.881 6.67-1.498 10.436 1.383 3.767 4.486 6.344 7.896 6.987 2.184-2.696 2.883-6.669 1.499-10.436-1.382-3.767-4.487-6.344-7.897-6.987zM145.143 52.758c-3.466-.178-7.088 1.596-9.319 4.932-2.231 3.336-2.487 7.36-1 10.496 3.466.178 7.088-1.596 9.319-4.932 2.231-3.335 2.487-7.36 1-10.496z"/>
        <path d="M119.393 57.867c-.178 3.466 1.596 7.088 4.932 9.32 3.335 2.23 7.36 2.486 10.496 1 .178-3.467-1.596-7.09-4.932-9.32-3.335-2.231-7.361-2.487-10.496-1zM139.862 24.594c-3.195 1.353-5.679 4.531-6.23 8.506-.551 3.975.977 7.709 3.684 9.879 3.196-1.354 5.679-4.53 6.23-8.505.55-3.975-.977-7.71-3.684-9.88z"/>
        <path d="M118.932 40.434c1.353 3.195 4.531 5.68 8.506 6.23 3.975.551 7.708-.977 9.879-3.684-1.354-3.194-4.531-5.68-8.507-6.23-3.975-.55-7.707.977-9.878 3.684zM127.172.426c-2.6 2.299-3.946 6.101-3.204 10.045s3.376 6.997 6.634 8.196c2.599-2.299 3.945-6.101 3.203-10.045s-3.377-6.998-6.633-8.196z"/>
        <path d="M112.36 22.096c2.299 2.6 6.102 3.945 10.045 3.203 3.944-.74 6.998-3.375 8.197-6.632-2.299-2.6-6.102-3.945-10.046-3.204-3.944.742-6.998 3.377-8.196 6.633zM23.762 105.969c1.192-3.259 4.24-5.9 8.182-6.65 3.943-.748 7.748.59 10.053 3.185-1.191 3.259-4.241 5.899-8.183 6.649-3.943.748-7.748-.59-10.052-3.184z"/>
        <path d="M38.533 84.27c3.26 1.192 5.9 4.241 6.65 8.183.749 3.943-.59 7.748-3.184 10.053-3.26-1.193-5.9-4.241-6.65-8.183-.748-3.943.59-7.748 3.184-10.052zM6.962 82.934c2.696-2.184 6.669-2.883 10.436-1.5 3.767 1.383 6.344 4.487 6.987 7.897-2.697 2.183-6.67 2.882-10.436 1.499-3.767-1.383-6.344-4.486-6.987-7.896z"/>
        <path d="M30.783 71.906c2.183 2.697 2.881 6.67 1.499 10.436-1.384 3.767-4.487 6.344-7.897 6.987-2.183-2.696-2.883-6.669-1.5-10.436 1.384-3.767 4.487-6.344 7.898-6.987zM1.23 52.758c3.465-.178 7.087 1.596 9.319 4.932 2.23 3.336 2.487 7.36 1 10.496-3.466.178-7.089-1.596-9.32-4.932-2.231-3.335-2.487-7.36-1-10.496z"/>
        <path d="M26.975 57.867c.178 3.466-1.596 7.088-4.931 9.32-3.336 2.23-7.361 2.486-10.497 1-.178-3.467 1.596-7.09 4.932-9.32 3.336-2.231 7.36-2.487 10.496-1zM6.505 24.594c3.196 1.353 5.68 4.531 6.231 8.506.55 3.975-.978 7.709-3.685 9.879-3.194-1.354-5.679-4.53-6.23-8.505-.55-3.975.977-7.71 3.684-9.88z"/>
        <path d="M27.439 40.434c-1.354 3.195-4.53 5.68-8.505 6.23-3.976.551-7.71-.977-9.88-3.684 1.353-3.194 4.53-5.68 8.506-6.23 3.975-.55 7.708.977 9.879 3.684zM19.196.426c2.6 2.299 3.945 6.101 3.203 10.045-.74 3.943-3.376 6.997-6.632 8.196-2.6-2.299-3.945-6.101-3.204-10.045.741-3.944 3.376-6.998 6.633-8.196z"/>
        <path d="M34.008 22.096c-2.299 2.6-6.1 3.945-10.044 3.203-3.944-.74-6.999-3.375-8.196-6.632 2.297-2.6 6.1-3.945 10.044-3.204 3.944.742 6.998 3.377 8.196 6.633zM38.51 2.802c-.426 2.958-2.583 6.241-5.875 8.481-3.29 2.241-6.854 2.853-9.347 1.882.425-2.957 2.583-6.24 5.874-8.482 3.291-2.24 6.855-2.852 9.347-1.88zM107.526 2.802c.425 2.958 2.583 6.241 5.874 8.481 3.291 2.241 6.854 2.853 9.347 1.882-.425-2.957-2.583-6.24-5.873-8.482-3.292-2.24-6.855-2.852-9.348-1.88z"/>
    </g>
    <defs>
        <clipPath id="prefix__clip0">
            <path fill="#fff" d="M0.376 0.243H146.076V109.314H0.376z"/>
        </clipPath>
    </defs>
</svg>
